# xmcd
#
# Track frame offsets: 
#        182
#        9382
#        31877
#        50012
#        71780
#        94545
#        120857
#        142387
#        161585
#        182705
#        204120
#        223452
#
# Disc length: 3310 seconds
#
# Revision: 2
# Processed by: cddbd v1.5.2PL0 Copyright (c) Steve Scherf et al.
# Submitted via: ExactAudioCopy v1.0b3
#
DISCID=aa0cec0c
DTITLE=Kenneth Mangram - Interwine Da' Fold
DYEAR=1995
DGENRE=Soul
TTITLE0=I Wonder (Interlude)
TTITLE1=If You're Looking For Love
TTITLE2=What's Yo Name
TTITLE3=831 Code
TTITLE4=I'll Send You Roses
TTITLE5=Love Takes Time
TTITLE6=Slo Ride
TTITLE7=So Devine
TTITLE8=Lovin' You E-Z
TTITLE9=Emagine
TTITLE10=Give Me
TTITLE11=Through It All
EXTD=
EXTT0=
EXTT1=
EXTT2=
EXTT3=
EXTT4=
EXTT5=
EXTT6=
EXTT7=
EXTT8=
EXTT9=
EXTT10=
EXTT11=
PLAYORDER=
